<?xml version="1.0" standalone="no"?>
<!DOCTYPE svg PUBLIC "-//W3C//DTD SVG 20010904//EN"
 "http://www.w3.org/TR/2001/REC-SVG-20010904/DTD/svg10.dtd">
<svg version="1.0" xmlns="http://www.w3.org/2000/svg"
 width="218.000000pt" height="321.000000pt" viewBox="0 0 218.000000 321.000000"
 preserveAspectRatio="xMidYMid meet">

<g transform="translate(0.000000,321.000000) scale(0.100000,-0.100000)"
fill="#000000" stroke="none">
<path d="M0 1605 l0 -1605 1090 0 1090 0 0 1605 0 1605 -1090 0 -1090 0 0
-1605z m1000 1060 l0 -275 -315 0 -315 0 0 275 0 275 315 0 315 0 0 -275z
m548 255 c71 -32 104 -138 64 -205 l-18 -29 37 -36 c62 -59 65 -151 6 -214
-41 -43 -88 -56 -204 -56 l-93 0 0 280 0 280 83 0 c59 0 94 -6 125 -20z m552
-20 l0 -39 -112 -3 -113 -3 -3 -62 -3 -63 111 0 110 0 0 -45 0 -45 -110 0
-111 0 3 -87 3 -88 113 -3 112 -3 0 -39 0 -40 -160 0 -160 0 0 280 0 280 160
0 160 0 0 -40z m-1155 -665 c51 -25 115 -89 140 -140 15 -30 20 -60 20 -125 0
-100 -17 -143 -83 -207 -135 -132 -363 -100 -459 65 -37 63 -45 188 -16 253
35 79 90 130 178 166 45 18 172 11 220 -12z m-719 -85 c31 -55 59 -102 63
-104 4 -3 33 42 66 100 l59 104 53 0 54 0 -25 -42 c-13 -24 -54 -94 -90 -156
l-66 -113 0 -125 0 -124 -45 0 -45 0 0 116 0 117 -90 157 c-49 87 -90 160 -90
164 0 3 22 6 49 6 l50 0 57 -100z m1064 -77 c0 -194 8 -243 47 -279 31 -29
106 -33 141 -8 47 32 52 60 52 269 l0 195 46 0 45 0 -3 -217 c-3 -206 -4 -220
-25 -254 -73 -116 -244 -131 -336 -30 -48 53 -57 106 -57 321 l0 180 45 0 45
0 0 -177z m699 152 c58 -34 76 -68 76 -140 0 -73 -19 -108 -77 -139 l-36 -20
77 -105 c43 -58 81 -112 85 -118 5 -10 -6 -13 -48 -13 l-55 0 -76 110 c-42 61
-80 110 -86 110 -5 0 -9 -48 -9 -110 l0 -110 -45 0 -45 0 0 281 0 281 103 -4
c79 -2 110 -8 136 -23z m-9 -862 l0 187 45 0 45 0 0 -296 c0 -163 -3 -294 -8
-292 -4 2 -95 94 -202 206 l-195 203 -3 -190 -2 -191 -45 0 -45 0 0 303 1 302
204 -210 204 -210 1 188z m-795 45 c32 -90 64 -175 70 -190 10 -26 15 -17 85
152 l74 180 49 0 c43 0 48 -2 43 -17 -32 -84 -241 -573 -245 -573 -3 0 -35 82
-71 181 -35 99 -67 182 -71 185 -3 2 -37 -80 -75 -181 -38 -102 -71 -185 -74
-185 -5 0 -85 195 -237 578 -4 8 9 12 45 12 l50 0 45 -117 c26 -65 56 -144 68
-175 12 -32 25 -58 28 -58 3 0 37 83 75 185 38 102 72 185 76 185 4 0 33 -73
65 -162z m-640 127 c51 -25 115 -89 140 -140 15 -30 20 -60 20 -125 0 -100
-17 -143 -83 -207 -135 -132 -363 -100 -459 65 -37 63 -45 188 -16 253 35 79
90 130 178 166 45 18 172 11 220 -12z m1380 -690 c51 -25 115 -89 140 -140 15
-30 20 -60 20 -125 0 -100 -17 -143 -83 -207 -135 -132 -363 -100 -459 65 -37
63 -45 188 -16 253 35 79 90 130 178 166 45 18 172 11 220 -12z m-1683 -92 l3
-108 115 0 115 0 3 108 3 107 44 0 45 0 0 -280 0 -280 -45 0 -45 0 0 130 0
130 -120 0 -120 0 0 -130 0 -130 -45 0 -45 0 0 280 0 280 45 0 44 0 3 -107z
m768 67 l0 -39 -112 -3 -113 -3 -3 -62 -3 -63 111 0 110 0 0 -45 0 -45 -110 0
-111 0 3 -87 3 -88 113 -3 112 -3 0 -39 0 -40 -160 0 -160 0 0 280 0 280 160
0 160 0 0 -40z m329 15 c58 -34 76 -68 76 -140 0 -73 -19 -108 -77 -139 l-36
-20 77 -105 c43 -58 81 -112 85 -118 5 -10 -6 -13 -48 -13 l-55 0 -76 110
c-42 60 -80 110 -86 110 -5 0 -9 -48 -9 -110 l0 -110 -45 0 -45 0 0 281 0 281
103 -4 c79 -2 110 -8 136 -23z"/>
<path d="M674 2895 c-16 -24 -15 -28 45 -130 60 -104 61 -106 46 -135 -20 -38
-28 -38 -53 1 l-20 32 -17 -27 c-17 -26 -17 -27 40 -126 52 -90 60 -100 86
-100 16 0 29 3 29 7 0 4 -12 31 -27 60 -26 49 -27 54 -13 77 8 14 20 25 25 26
6 0 30 -33 56 -75 56 -93 62 -99 89 -90 15 5 19 12 15 23 -9 23 -276 482 -281
482 -2 0 -11 -11 -20 -25z"/>
<path d="M537 2663 c-116 -198 -138 -239 -130 -246 8 -9 233 -8 255 1 15 6 13
13 -16 61 l-34 54 -16 -31 c-14 -28 -22 -32 -56 -32 -22 0 -40 2 -40 4 0 2 34
63 76 136 73 127 75 132 59 156 -8 13 -17 24 -19 24 -2 0 -38 -57 -79 -127z"/>
<path d="M1432 2783 l3 -78 35 3 c47 4 70 27 70 73 0 45 -36 79 -82 79 l-29 0
3 -77z"/>
<path d="M1435 2618 c-3 -8 -5 -46 -3 -84 l3 -69 50 3 c59 4 92 23 101 56 14
56 -21 92 -99 102 -36 5 -48 3 -52 -8z"/>
<path d="M772 2170 c-86 -21 -144 -92 -150 -184 -4 -74 23 -134 81 -180 36
-29 45 -31 117 -31 72 0 81 2 117 31 98 78 110 218 25 307 -49 52 -122 74
-190 57z"/>
<path d="M1847 2164 c-4 -4 -7 -43 -7 -86 l0 -78 35 0 c20 0 49 7 65 15 49 25
54 94 10 126 -28 20 -91 34 -103 23z"/>
<path d="M372 1470 c-86 -21 -144 -92 -150 -184 -4 -74 23 -134 81 -180 36
-29 45 -31 117 -31 72 0 81 2 117 31 98 78 110 218 25 307 -49 52 -122 74
-190 57z"/>
<path d="M1752 780 c-86 -21 -144 -92 -150 -184 -4 -74 23 -134 81 -180 36
-29 45 -31 117 -31 72 0 81 2 117 31 98 78 110 218 25 307 -49 52 -122 74
-190 57z"/>
<path d="M1197 774 c-4 -4 -7 -43 -7 -86 l0 -78 35 0 c20 0 49 7 65 15 49 25
54 94 10 126 -28 20 -91 34 -103 23z"/>
</g>
</svg>
